<svg width="871" height="1168" viewBox="0 0 871 1168" fill="none" xmlns="http://www.w3.org/2000/svg">
<rect width="871" height="1168" fill="#F5F5F5"/>
<g filter="url(#filter0_b_0_1)">
<path d="M865.046 442.736C860.519 433.129 853.592 425.051 845.033 419.395C836.474 413.74 826.618 410.729 816.557 410.697H544.147V61.1722C544.732 48.3961 541.367 35.7694 534.573 25.241C527.779 14.7127 517.933 6.8681 506.555 2.91806C495.616 -0.930021 483.818 -0.973264 472.855 2.79453C461.892 6.56233 452.328 13.9474 445.535 23.8895L9.67897 664.684C4.218 673.124 0.938896 682.955 0.173527 693.185C-0.591843 703.414 1.18369 713.679 5.32041 722.939C9.12989 733.526 15.7476 742.694 24.3613 749.317C32.975 755.94 43.2098 759.73 53.8094 760.221H326.219V1109.75C326.228 1122.03 329.868 1134 336.62 1143.94C343.371 1153.88 352.889 1161.28 363.812 1165.09C369.286 1166.9 374.971 1167.88 380.701 1168C389.298 1168.02 397.777 1165.87 405.447 1161.72C413.117 1157.57 419.76 1151.54 424.832 1144.12L860.687 503.321C866.558 494.629 870.07 484.374 870.839 473.684C871.609 462.995 869.604 452.286 865.046 442.736V442.736ZM435.183 930.323V701.967C435.183 686.517 429.443 671.7 419.226 660.775C409.008 649.851 395.151 643.713 380.701 643.713H162.773L435.183 240.595V468.951C435.183 484.401 440.923 499.218 451.141 510.143C461.358 521.067 475.216 527.205 489.665 527.205H707.593L435.183 930.323Z" fill="url(#paint0_linear_0_1)"/>
</g>
<defs>
<filter id="filter0_b_0_1" x="-4" y="-4" width="879" height="1176" filterUnits="userSpaceOnUse" color-interpolation-filters="sRGB">
<feFlood flood-opacity="0" result="BackgroundImageFix"/>
<feGaussianBlur in="BackgroundImageFix" stdDeviation="2"/>
<feComposite in2="SourceAlpha" operator="in" result="effect1_backgroundBlur_0_1"/>
<feBlend mode="normal" in="SourceGraphic" in2="effect1_backgroundBlur_0_1" result="shape"/>
</filter>
<linearGradient id="paint0_linear_0_1" x1="928.519" y1="1168" x2="0" y2="1168" gradientUnits="userSpaceOnUse">
<stop stop-color="#F7BA2B" stop-opacity="0.55"/>
<stop offset="1" stop-color="#EA5358"/>
</linearGradient>
</defs>
</svg>
